<svg width="719" height="803" viewBox="0 0 719 803" fill="none" xmlns="http://www.w3.org/2000/svg">
<path d="M361.457 8.03477L6.66159 206.843L8.8818 203.104L9.13166 600.289L6.91144 596.578L361.957 794.955H357.516L712.339 596.148L710.119 599.886L709.869 202.701L712.09 206.412L357.044 8.03477H361.485M357.044 0.584966C358.432 -0.194989 360.125 -0.194989 361.485 0.584966L716.53 198.962C717.918 199.716 718.75 201.141 718.75 202.674L719 599.859C719 601.392 718.167 602.818 716.78 603.598L361.984 802.405C360.597 803.185 358.932 803.185 357.544 802.405L2.49863 604.028C1.13873 603.248 0.278417 601.849 0.278417 600.289L0.0285645 203.104C0.0285645 201.571 0.861292 200.146 2.24895 199.366L357.044 0.558045V0.584966Z" fill="white" fill-opacity="0.15"/>
<path d="M8.88102 203.104L6.66081 199.393L361.706 397.77H357.265L712.061 198.963C714.198 197.779 716.89 198.478 718.139 200.522C719.36 202.593 718.638 205.202 716.501 206.412L361.706 405.22C360.346 406 358.653 406 357.265 405.22L2.22038 206.843C0.832728 206.09 0 204.664 0 203.131C0 200.764 1.99832 198.828 4.44059 198.828C6.88287 198.828 8.88102 200.764 8.88102 203.131V203.104Z" fill="white" fill-opacity="0.15"/>
<path d="M363.926 401.481L364.176 798.667C364.176 801.033 362.178 802.97 359.736 802.97C357.293 802.97 355.295 801.033 355.295 798.667L355.045 401.508C355.045 399.142 357.016 397.205 359.486 397.205C361.928 397.205 363.926 399.142 363.926 401.508V401.481Z" fill="white" fill-opacity="0.15"/>
</svg>
