<svg xmlns="http://www.w3.org/2000/svg" width="24" height="24" viewBox="0 0 24 24"><path d="M12 0c-6.627 0-12 5.373-12 12s5.373 12 12 12 12-5.373 12-12-5.373-12-12-12zm6.284 18.297c-1.398 1.488-3.604 2.302-6.284 2.302-2.68 0-4.886-.814-6.284-2.302-1.398-1.487-2.029-3.57-2.029-5.997s.631-4.51 2.029-5.997c1.398-1.488 3.604-2.303 6.284-2.303s4.886.815 6.284 2.303c1.398 1.487 2.029 3.57 2.029 5.997s-.631 4.51-2.029 5.997zm-3.142-10.797c-.699-.744-1.802-1.151-3.142-1.151s-2.443.407-3.142 1.151c-.699.744-1.014 1.785-1.014 2.999s.315 2.255 1.014 2.999c.699.744 1.802 1.151 3.142 1.151s2.443-.407 3.142-1.151c.699-.744 1.014-1.785 1.014-2.999s-.315-2.255-1.014-2.999z"/></svg>
