<svg xmlns="http://www.w3.org/2000/svg" width="24" height="24" viewBox="0 0 24 24"><path d="M12 0c-6.627 0-12 5.373-12 12s5.373 12 12 12 12-5.373 12-12-5.373-12-12-12zm0 21.6c-5.302 0-9.6-4.298-9.6-9.6s4.298-9.6 9.6-9.6 9.6 4.298 9.6 9.6-4.298 9.6-9.6 9.6zm-1.8-6.6c-.662 0-1.2-.538-1.2-1.2s.538-1.2 1.2-1.2 1.2.538 1.2 1.2-.538 1.2-1.2 1.2zm3.6 0c-.662 0-1.2-.538-1.2-1.2s.538-1.2 1.2-1.2 1.2.538 1.2 1.2-.538 1.2-1.2 1.2zm-1.8-3.6c-2.347 0-4.2-1.853-4.2-4.2s1.853-4.2 4.2-4.2 4.2 1.853 4.2 4.2-1.853 4.2-4.2 4.2z"/></svg>