<svg xmlns="http://www.w3.org/2000/svg" width="24" height="24" viewBox="0 0 24 24"><path d="M12 0c-6.627 0-12 5.373-12 12s5.373 12 12 12 12-5.373 12-12-5.373-12-12-12zm0 21.6c-5.302 0-9.6-4.298-9.6-9.6s4.298-9.6 9.6-9.6 9.6 4.298 9.6 9.6-4.298 9.6-9.6 9.6zm-1.8-13.2c-.994 0-1.8.806-1.8 1.8s.806 1.8 1.8 1.8 1.8-.806 1.8-1.8-.806-1.8-1.8-1.8zm3.6 0c-.994 0-1.8.806-1.8 1.8s.806 1.8 1.8 1.8 1.8-.806 1.8-1.8-.806-1.8-1.8-1.8zm-1.8 3.6c-1.988 0-3.6 1.612-3.6 3.6s1.612 3.6 3.6 3.6 3.6-1.612 3.6-3.6-1.612-3.6-3.6-3.6z"/></svg>